<?xml version="1.0" encoding="UTF-8"?>
<svg version="1.1" xmlns="http://www.w3.org/2000/svg" width="2000" height="2000">
<path d="M0 0 C1.70868975 0.00023397 1.70868975 0.00023397 3.45189848 0.00047267 C4.76285568 -0.00177462 6.07381288 -0.00402192 7.42449605 -0.00633731 C8.90140567 -0.00377099 10.37831514 -0.00111406 11.85522446 0.00162334 C13.41344595 0.00088461 14.97166728 -0.000293 16.52988815 -0.00187316 C20.85169362 -0.00496304 25.17347583 -0.00174991 29.49527957 0.00240497 C34.18192036 0.00582153 38.86855864 0.00347176 43.55519989 0.00182748 C51.7822939 -0.00025245 60.00938071 0.00140803 68.23647388 0.00546569 C80.4700015 0.01148266 92.70352453 0.01180318 104.93705335 0.0109237 C125.51241191 0.00960749 146.08776726 0.01295995 166.66312489 0.01894111 C187.04560567 0.02485106 207.42808512 0.02870562 227.81056675 0.02979392 C229.07623262 0.02986266 230.34189849 0.0299314 231.64591787 0.03000222 C238.07316992 0.03034054 244.50042197 0.03064193 250.92767401 0.0309291 C296.49333051 0.03303147 342.0589849 0.03977349 387.62464031 0.04923171 C398.67452637 0.05152333 409.72441244 0.05379867 420.77429852 0.05600661 C421.45959347 0.05614356 422.14488842 0.05628051 422.85094989 0.05642161 C454.69576454 0.06276317 486.54057934 0.06649047 518.38539446 0.06954141 C520.45223678 0.06973947 522.51907911 0.06993867 524.58592144 0.07013809 C538.28274594 0.07145784 551.97957045 0.0727325 565.67639497 0.07397695 C593.58028093 0.07651261 621.48416687 0.07933465 649.38805279 0.08232803 C650.67112688 0.08246532 651.95420098 0.08260261 653.27615611 0.08274406 C739.00861055 0.09195015 824.74106403 0.10779598 910.47351727 0.12467116 C910.47351727 2.10467116 910.47351727 4.08467116 910.47351727 6.12467116 C909.81351727 6.12467116 909.15351727 6.12467116 908.47351727 6.12467116 C908.14351727 7.11467116 907.81351727 8.10467116 907.47351727 9.12467116 C906.81351727 9.12467116 906.15351727 9.12467116 905.47351727 9.12467116 C905.39101727 9.70217116 905.30851727 10.27967116 905.22351727 10.87467116 C904.267732 13.74202695 902.62266983 15.04267961 900.47351727 17.12467116 C900.14351727 18.11467116 899.81351727 19.10467116 899.47351727 20.12467116 C898.81351727 20.12467116 898.15351727 20.12467116 897.47351727 20.12467116 C897.20539227 20.76404616 896.93726727 21.40342116 896.66101727 22.06217116 C895.47351727 24.12467116 895.47351727 24.12467116 892.47351727 25.12467116 C892.14351727 26.77467116 891.81351727 28.42467116 891.47351727 30.12467116 C890.81351727 30.12467116 890.15351727 30.12467116 889.47351727 30.12467116 C889.20539227 30.92904616 888.93726727 31.73342116 888.66101727 32.56217116 C888.07320477 33.83060866 888.07320477 33.83060866 887.47351727 35.12467116 C885.98851727 35.61967116 885.98851727 35.61967116 884.47351727 36.12467116 C883.7402793 38.13975475 883.7402793 38.13975475 883.47351727 40.12467116 C882.81351727 40.12467116 882.15351727 40.12467116 881.47351727 40.12467116 C881.14351727 41.44467116 880.81351727 42.76467116 880.47351727 44.12467116 C879.81351727 44.12467116 879.15351727 44.12467116 878.47351727 44.12467116 C878.47351727 44.78467116 878.47351727 45.44467116 878.47351727 46.12467116 C877.81351727 46.12467116 877.15351727 46.12467116 876.47351727 46.12467116 C876.37039227 46.88779616 876.26726727 47.65092116 876.16101727 48.43717116 C875.42640533 51.308836 874.80191077 52.3550921 872.47351727 54.12467116 C871.81351727 54.12467116 871.15351727 54.12467116 870.47351727 54.12467116 C870.47351727 55.11467116 870.47351727 56.10467116 870.47351727 57.12467116 C869.81351727 57.12467116 869.15351727 57.12467116 868.47351727 57.12467116 C868.14351727 58.11467116 867.81351727 59.10467116 867.47351727 60.12467116 C866.81351727 60.12467116 866.15351727 60.12467116 865.47351727 60.12467116 C865.39101727 60.70217116 865.30851727 61.27967116 865.22351727 61.87467116 C864.267732 64.74202695 862.62266983 66.04267961 860.47351727 68.12467116 C860.14351727 69.11467116 859.81351727 70.10467116 859.47351727 71.12467116 C858.81351727 71.12467116 858.15351727 71.12467116 857.47351727 71.12467116 C857.20539227 71.76404616 856.93726727 72.40342116 856.66101727 73.06217116 C855.47351727 75.12467116 855.47351727 75.12467116 852.47351727 76.12467116 C852.14351727 77.77467116 851.81351727 79.42467116 851.47351727 81.12467116 C850.81351727 81.12467116 850.15351727 81.12467116 849.47351727 81.12467116 C849.14351727 82.11467116 848.81351727 83.10467116 848.47351727 84.12467116 C847.81351727 84.12467116 847.15351727 84.12467116 846.47351727 84.12467116 C846.28789227 85.02185866 846.28789227 85.02185866 846.09851727 85.93717116 C845.47351727 88.12467116 845.47351727 88.12467116 843.47351727 91.12467116 C842.81351727 91.12467116 842.15351727 91.12467116 841.47351727 91.12467116 C841.14351727 92.44467116 840.81351727 93.76467116 840.47351727 95.12467116 C839.81351727 95.12467116 839.15351727 95.12467116 838.47351727 95.12467116 C838.20539227 95.76404616 837.93726727 96.40342116 837.66101727 97.06217116 C836.47351727 99.12467116 836.47351727 99.12467116 833.47351727 100.12467116 C833.14351727 101.77467116 832.81351727 103.42467116 832.47351727 105.12467116 C831.81351727 105.12467116 831.15351727 105.12467116 830.47351727 105.12467116 C830.20539227 105.92904616 829.93726727 106.73342116 829.66101727 107.56217116 C829.07320477 108.83060866 829.07320477 108.83060866 828.47351727 110.12467116 C826.98851727 110.61967116 826.98851727 110.61967116 825.47351727 111.12467116 C824.36715331 113.5153585 824.36715331 113.5153585 823.47351727 116.12467116 C822.81351727 117.11467116 822.15351727 118.10467116 821.47351727 119.12467116 C820.81351727 119.12467116 820.15351727 119.12467116 819.47351727 119.12467116 C819.47351727 119.78467116 819.47351727 120.44467116 819.47351727 121.12467116 C818.81351727 121.12467116 818.15351727 121.12467116 817.47351727 121.12467116 C817.37039227 121.70217116 817.26726727 122.27967116 817.16101727 122.87467116 C816.36455262 125.48128274 815.2828645 127.09820226 813.47351727 129.12467116 C812.81351727 129.12467116 812.15351727 129.12467116 811.47351727 129.12467116 C811.47351727 130.11467116 811.47351727 131.10467116 811.47351727 132.12467116 C810.81351727 132.12467116 810.15351727 132.12467116 809.47351727 132.12467116 C809.14351727 133.11467116 808.81351727 134.10467116 808.47351727 135.12467116 C807.81351727 135.12467116 807.15351727 135.12467116 806.47351727 135.12467116 C806.34976727 135.72279616 806.22601727 136.32092116 806.09851727 136.93717116 C805.47351727 139.12467116 805.47351727 139.12467116 803.47351727 142.12467116 C802.81351727 142.12467116 802.15351727 142.12467116 801.47351727 142.12467116 C801.14351727 143.44467116 800.81351727 144.76467116 800.47351727 146.12467116 C799.81351727 146.12467116 799.15351727 146.12467116 798.47351727 146.12467116 C798.14351727 147.44467116 797.81351727 148.76467116 797.47351727 150.12467116 C796.15351727 150.45467116 794.83351727 150.78467116 793.47351727 151.12467116 C793.14351727 152.77467116 792.81351727 154.42467116 792.47351727 156.12467116 C791.81351727 156.12467116 791.15351727 156.12467116 790.47351727 156.12467116 C790.16414227 156.74342116 789.85476727 157.36217116 789.53601727 157.99967116 C788.84851727 159.37467116 788.16101727 160.74967116 787.47351727 162.12467116 C786.81351727 162.12467116 786.15351727 162.12467116 785.47351727 162.12467116 C785.34976727 162.99092116 785.34976727 162.99092116 785.22351727 163.87467116 C784.25356815 166.78451851 782.69580625 168.02937012 780.47351727 170.12467116 C779.77226727 171.03217116 779.07101727 171.93967116 778.34851727 172.87467116 C777.72976727 173.61717116 777.11101727 174.35967116 776.47351727 175.12467116 C775.81351727 175.12467116 775.15351727 175.12467116 774.47351727 175.12467116 C774.14351727 176.77467116 773.81351727 178.42467116 773.47351727 180.12467116 C772.81351727 180.12467116 772.15351727 180.12467116 771.47351727 180.12467116 C771.14351727 181.11467116 770.81351727 182.10467116 770.47351727 183.12467116 C769.81351727 183.12467116 769.15351727 183.12467116 768.47351727 183.12467116 C768.26726727 183.78467116 768.06101727 184.44467116 767.84851727 185.12467116 C765.98227474 189.19647303 763.497902 192.81264115 760.47351727 196.12467116 C759.81351727 196.12467116 759.15351727 196.12467116 758.47351727 196.12467116 C758.14351727 197.11467116 757.81351727 198.10467116 757.47351727 199.12467116 C756.81351727 199.12467116 756.15351727 199.12467116 755.47351727 199.12467116 C755.47351727 200.11467116 755.47351727 201.10467116 755.47351727 202.12467116 C754.81351727 202.12467116 754.15351727 202.12467116 753.47351727 202.12467116 C753.21570477 202.68670241 752.95789227 203.24873366 752.69226727 203.82779616 C751.3318195 206.39171695 749.74562765 208.57693482 747.97351727 210.87467116 C747.36507977 211.67388991 746.75664227 212.47310866 746.12976727 213.29654616 C745.58320477 213.89982741 745.03664227 214.50310866 744.47351727 215.12467116 C743.81351727 215.12467116 743.15351727 215.12467116 742.47351727 215.12467116 C742.37039227 215.88779616 742.26726727 216.65092116 742.16101727 217.43717116 C741.42640533 220.308836 740.80191077 221.3550921 738.47351727 223.12467116 C737.81351727 223.12467116 737.15351727 223.12467116 736.47351727 223.12467116 C736.47351727 224.11467116 736.47351727 225.10467116 736.47351727 226.12467116 C735.81351727 226.12467116 735.15351727 226.12467116 734.47351727 226.12467116 C734.14351727 227.11467116 733.81351727 228.10467116 733.47351727 229.12467116 C732.81351727 229.12467116 732.15351727 229.12467116 731.47351727 229.12467116 C731.47351727 229.78467116 731.47351727 230.44467116 731.47351727 231.12467116 C726.63351085 233.04828104 722.26305778 233.40558944 717.12000164 233.36759109 C716.30280651 233.36948943 715.48561138 233.37138778 714.64365276 233.37334365 C711.95142546 233.37703678 709.25947049 233.36636008 706.56726727 233.35513991 C704.68124057 233.35394617 702.79521327 233.35349537 700.90918621 233.35375137 C696.95500608 233.35218851 693.00091673 233.34391972 689.04675945 233.33048171 C684.0149833 233.31358569 678.98330765 233.309665 673.95150646 233.31042689 C670.05293485 233.31015276 666.15438457 233.30463132 662.25582012 233.29742545 C660.402947 233.29427392 658.5500715 233.29227974 656.69719585 233.29153175 C654.08548664 233.28932489 651.47387646 233.28048765 648.86218914 233.26993484 C648.11778576 233.27038802 647.37338238 233.27084121 646.60642132 233.27130813 C642.08024804 233.24501519 637.61134651 232.99127748 633.09965118 232.62425059 C625.57292635 232.07783785 618.09123811 231.98490461 610.54729351 231.99768752 C609.0963677 231.99653225 607.64544219 231.99494201 606.19451728 231.99296028 C602.24892143 231.9888234 598.30335008 231.99083179 594.3577542 231.9939465 C590.08731928 231.99622331 585.81688838 231.99270987 581.54645428 231.98996658 C573.20068514 231.98553568 564.85492504 231.98647296 556.50915556 231.98937922 C549.73032096 231.99164184 542.95148887 231.99194206 536.172654 231.9908554 C535.20623851 231.99070217 534.23982302 231.99054893 533.24412221 231.99039106 C531.28075641 231.99007133 529.31739062 231.98974711 527.35402483 231.98941847 C508.97781262 231.98657205 490.60160541 231.98983857 472.22539401 231.99521883 C456.44652701 231.99969535 440.66766735 231.99890235 424.88880047 231.99430007 C406.55610656 231.9889554 388.223417 231.98683695 369.89072242 231.98991233 C367.93874014 231.99023089 365.98675786 231.99054526 364.03477558 231.9908554 C363.07437164 231.99100968 362.11396769 231.99116395 361.1244606 231.9913229 C354.34454291 231.99218769 347.56462799 231.99072619 340.78471073 231.98837585 C332.53666253 231.98557926 324.28862385 231.98631349 316.04057674 231.99165659 C311.82982116 231.9942941 307.61908148 231.9952977 303.408326 231.99200744 C299.56055828 231.98904607 295.71282135 231.99063455 291.86505646 231.99598499 C290.46708176 231.99710975 289.0691045 231.99651672 287.67113142 231.9941092 C285.78339637 231.99110542 283.89565412 231.9947585 282.00792107 231.99883002 C280.42960543 231.99907355 280.42960543 231.99907355 278.81940463 231.999322 C276.51501064 231.86038777 276.51501064 231.86038777 275.47351727 233.12467116 C272.16994749 233.57344377 268.86744461 233.94386933 265.55164227 234.28678054 C261.52985633 234.74144935 258.17476909 235.51164822 254.47351727 237.12467116 C251.66101727 237.24967116 251.66101727 237.24967116 249.47351727 237.12467116 C249.47351727 237.78467116 249.47351727 238.44467116 249.47351727 239.12467116 C248.71425945 239.39021804 247.95500164 239.65576491 247.17273602 239.92935866 C245.68193523 240.45916335 245.68193523 240.45916335 244.16101727 240.99967116 C242.68181805 241.52174148 242.68181805 241.52174148 241.17273602 242.05435866 C238.31757349 243.07773041 238.31757349 243.07773041 235.47351727 245.12467116 C232.78601727 245.24967116 232.78601727 245.24967116 230.47351727 245.12467116 C230.14351727 246.11467116 229.81351727 247.10467116 229.47351727 248.12467116 C226.87109313 249.77287312 225.61102947 250.12467116 222.47351727 250.12467116 C222.47351727 250.78467116 222.47351727 251.44467116 222.47351727 252.12467116 C221.15351727 252.45467116 219.83351727 252.78467116 218.47351727 253.12467116 C218.47351727 253.78467116 218.47351727 254.44467116 218.47351727 255.12467116 C214.08890188 258.12467116 214.08890188 258.12467116 211.47351727 258.12467116 C211.14351727 259.11467116 210.81351727 260.10467116 210.47351727 261.12467116 C209.48351727 261.12467116 208.49351727 261.12467116 207.47351727 261.12467116 C207.47351727 261.78467116 207.47351727 262.44467116 207.47351727 263.12467116 C205.89929852 264.64029616 205.89929852 264.64029616 203.78601727 266.37467116 C200.22554708 269.39415118 197.37397934 272.47837598 194.47351727 276.12467116 C192.78601727 277.99967116 192.78601727 277.99967116 191.47351727 279.12467116 C190.81351727 279.12467116 190.15351727 279.12467116 189.47351727 279.12467116 C189.47351727 279.78467116 189.47351727 280.44467116 189.47351727 281.12467116 C188.81351727 281.12467116 188.15351727 281.12467116 187.47351727 281.12467116 C187.14351727 282.44467116 186.81351727 283.76467116 186.47351727 285.12467116 C185.81351727 285.12467116 185.15351727 285.12467116 184.47351727 285.12467116 C184.14351727 286.77467116 183.81351727 288.42467116 183.47351727 290.12467116 C182.81351727 290.12467116 182.15351727 290.12467116 181.47351727 290.12467116 C181.47351727 290.78467116 181.47351727 291.44467116 181.47351727 292.12467116 C180.81351727 292.12467116 180.15351727 292.12467116 179.47351727 292.12467116 C179.14351727 293.44467116 178.81351727 294.76467116 178.47351727 296.12467116 C177.81351727 296.12467116 177.15351727 296.12467116 176.47351727 296.12467116 C176.39101727 296.97029616 176.30851727 297.81592116 176.22351727 298.68717116 C175.50573176 301.97702139 174.39437914 304.27131226 172.65711102 307.12857741 C171.26467835 309.47687145 170.01976505 311.87686032 168.78601727 314.31217116 C168.36965008 315.13072585 167.95328289 315.94928054 167.52429852 316.79263991 C166.57034759 318.90977264 165.94762902 320.85831279 165.47351727 323.12467116 C164.81351727 323.12467116 164.15351727 323.12467116 163.47351727 323.12467116 C163.14351727 325.76467116 162.81351727 328.40467116 162.47351727 331.12467116 C161.81351727 331.12467116 161.15351727 331.12467116 160.47351727 331.12467116 C160.41293133 331.9071321 160.35234539 332.68959304 160.28992352 333.49576491 C160.20613445 334.50767898 160.12234539 335.51959304 160.03601727 336.56217116 C159.91420086 338.07617507 159.91420086 338.07617507 159.78992352 339.62076491 C159.47351727 342.12467116 159.47351727 342.12467116 158.47351727 343.12467116 C158.09727048 345.91712777 157.76646676 348.69834163 157.47351727 351.49967116 C157.30984223 353.0494692 157.14328629 354.59896634 156.97351727 356.14810866 C156.90132977 356.8382405 156.82914227 357.52837234 156.75476727 358.23941726 C156.47351727 360.12467116 156.47351727 360.12467116 155.47351727 363.12467116 C155.32859603 364.53132043 155.22722795 365.94278446 155.15711102 367.35513991 C155.11521648 368.15758132 155.07332195 368.96002273 155.03015789 369.78678054 C154.99084148 370.62015945 154.95152508 371.45353835 154.91101727 372.31217116 C154.84624187 373.57964187 154.84624187 373.57964187 154.78015789 374.87271804 C154.67420209 376.9565155 154.57336706 379.0405722 154.47351727 381.12467116 C155.35422233 380.96201263 156.23492739 380.79935409 157.14232048 380.6317665 C162.98864904 379.80531318 168.88114431 379.994293 174.77266582 380.01114577 C176.13313028 380.01142603 177.49359488 380.01126234 178.85405925 380.01069469 C182.58405656 380.01039973 186.31402189 380.01632613 190.0440118 380.02326459 C194.07282908 380.02964989 198.10164761 380.0302089 202.13046917 380.03143996 C209.11911482 380.03432723 216.1077499 380.04076977 223.09639057 380.04950637 C233.25517812 380.06210786 243.41396178 380.06814948 253.57275586 380.07243973 C270.12748864 380.07951273 286.68221656 380.09030879 303.236945 380.10416335 C304.72308972 380.10540507 304.72308972 380.10540507 306.23925756 380.10667187 C315.24827791 380.1142326 324.25729806 380.12203415 333.26631817 380.12987441 C339.21225622 380.13504262 345.15819433 380.14014473 351.1041325 380.14517898 C352.08064079 380.1460071 353.05714907 380.14683523 354.06324852 380.14768845 C370.50539054 380.16150614 386.94753264 380.17119758 403.38967898 380.17808932 C412.58977346 380.18211919 421.78985691 380.18826875 430.98994526 380.19983596 C467.6997866 380.24544213 504.38480348 380.22209442 541.08580783 379.29267747 C553.43611692 378.98875087 565.78907339 378.93856148 578.14270672 378.93936843 C581.41443095 378.93746072 584.68583056 378.92517382 587.95749458 378.90859622 C591.16985954 378.89495767 594.38222098 378.89539805 597.59461102 378.89420241 C598.75657497 378.8870169 599.91853893 378.87983138 601.11571392 378.87242812 C602.17536861 378.87550475 603.23502331 378.87858138 604.32678875 378.88175124 C605.25297512 378.88032622 606.17916149 378.87890121 607.13341412 378.87743301 C609.47351727 379.12467116 609.47351727 379.12467116 612.47351727 381.12467116 C612.14351727 382.77467116 611.81351727 384.42467116 611.47351727 386.12467116 C610.48351727 386.45467116 609.49351727 386.78467116 608.47351727 387.12467116 C608.14351727 388.77467116 607.81351727 390.42467116 607.47351727 392.12467116 C606.81351727 392.12467116 606.15351727 392.12467116 605.47351727 392.12467116 C605.22601727 392.66092116 604.97851727 393.19717116 604.72351727 393.74967116 C603.1669919 396.70706936 601.43916053 399.42191167 599.47351727 402.12467116 C598.81351727 402.12467116 598.15351727 402.12467116 597.47351727 402.12467116 C597.14351727 403.44467116 596.81351727 404.76467116 596.47351727 406.12467116 C595.81351727 406.12467116 595.15351727 406.12467116 594.47351727 406.12467116 C593.26723719 408.45681264 592.30804347 410.62109255 591.47351727 413.12467116 C590.03601727 414.81217116 590.03601727 414.81217116 588.47351727 416.12467116 C587.81351727 416.12467116 587.15351727 416.12467116 586.47351727 416.12467116 C586.34976727 417.05279616 586.34976727 417.05279616 586.22351727 417.99967116 C585.97601727 418.70092116 585.72851727 419.40217116 585.47351727 420.12467116 C584.81351727 420.43404616 584.15351727 420.74342116 583.47351727 421.06217116 C582.48351727 421.58810866 582.48351727 421.58810866 581.47351727 422.12467116 C580.66180498 424.67987038 580.66180498 424.67987038 580.47351727 427.12467116 C579.81351727 427.12467116 579.15351727 427.12467116 578.47351727 427.12467116 C578.14351727 428.11467116 577.81351727 429.10467116 577.47351727 430.12467116 C576.81351727 430.12467116 576.15351727 430.12467116 575.47351727 430.12467116 C575.28789227 431.02185866 575.28789227 431.02185866 575.09851727 431.93717116 C574.47351727 434.12467116 574.47351727 434.12467116 572.47351727 437.12467116 C571.81351727 437.12467116 571.15351727 437.12467116 570.47351727 437.12467116 C570.20539227 437.92904616 569.93726727 438.73342116 569.66101727 439.56217116 C569.26914227 440.40779616 568.87726727 441.25342116 568.47351727 442.12467116 C567.48351727 442.45467116 566.49351727 442.78467116 565.47351727 443.12467116 C565.14351727 444.77467116 564.81351727 446.42467116 564.47351727 448.12467116 C563.81351727 448.12467116 563.15351727 448.12467116 562.47351727 448.12467116 C562.14351727 449.11467116 561.81351727 450.10467116 561.47351727 451.12467116 C560.81351727 451.12467116 560.15351727 451.12467116 559.47351727 451.12467116 C559.47351727 452.11467116 559.47351727 453.10467116 559.47351727 454.12467116 C558.81351727 454.12467116 558.15351727 454.12467116 557.47351727 454.12467116 C557.22601727 454.66092116 556.97851727 455.19717116 556.72351727 455.74967116 C555.1669919 458.70706936 553.43916053 461.42191167 551.47351727 464.12467116 C550.81351727 464.12467116 550.15351727 464.12467116 549.47351727 464.12467116 C549.14351727 465.11467116 548.81351727 466.10467116 548.47351727 467.12467116 C547.81351727 467.12467116 547.15351727 467.12467116 546.47351727 467.12467116 C546.14351727 468.77467116 545.81351727 470.42467116 545.47351727 472.12467116 C544.15351727 472.45467116 542.83351727 472.78467116 541.47351727 473.12467116 C541.14351727 474.77467116 540.81351727 476.42467116 540.47351727 478.12467116 C539.81351727 478.12467116 539.15351727 478.12467116 538.47351727 478.12467116 C538.18476727 478.88779616 537.89601727 479.65092116 537.59851727 480.43717116 C536.47351727 483.12467116 536.47351727 483.12467116 534.47351727 486.12467116 C533.81351727 486.12467116 533.15351727 486.12467116 532.47351727 486.12467116 C532.47351727 486.78467116 532.47351727 487.44467116 532.47351727 488.12467116 C531.81351727 488.12467116 531.15351727 488.12467116 530.47351727 488.12467116 C530.39101727 488.70217116 530.30851727 489.27967116 530.22351727 489.87467116 C529.267732 492.74202695 527.62266983 494.04267961 525.47351727 496.12467116 C525.14351727 497.11467116 524.81351727 498.10467116 524.47351727 499.12467116 C523.81351727 499.12467116 523.15351727 499.12467116 522.47351727 499.12467116 C522.14351727 500.11467116 521.81351727 501.10467116 521.47351727 502.12467116 C520.81351727 502.12467116 520.15351727 502.12467116 519.47351727 502.12467116 C519.39101727 502.70217116 519.30851727 503.27967116 519.22351727 503.87467116 C518.267732 506.74202695 516.62266983 508.04267961 514.47351727 510.12467116 C514.14351727 511.11467116 513.81351727 512.10467116 513.47351727 513.12467116 C512.81351727 513.12467116 512.15351727 513.12467116 511.47351727 513.12467116 C511.22601727 513.66092116 510.97851727 514.19717116 510.72351727 514.74967116 C509.1669919 517.70706936 507.43916053 520.42191167 505.47351727 523.12467116 C504.81351727 523.12467116 504.15351727 523.12467116 503.47351727 523.12467116 C503.20539227 523.92904616 502.93726727 524.73342116 502.66101727 525.56217116 C502.26914227 526.40779616 501.87726727 527.25342116 501.47351727 528.12467116 C500.48351727 528.45467116 499.49351727 528.78467116 498.47351727 529.12467116 C498.14351727 530.11467116 497.81351727 531.10467116 497.47351727 532.12467116 C496.81351727 532.12467116 496.15351727 532.12467116 495.47351727 532.12467116 C495.14351727 533.77467116 494.81351727 535.42467116 494.47351727 537.12467116 C493.81351727 537.12467116 493.15351727 537.12467116 492.47351727 537.12467116 C492.47351727 537.78467116 492.47351727 538.44467116 492.47351727 539.12467116 C491.81351727 539.12467116 491.15351727 539.12467116 490.47351727 539.12467116 C490.18476727 539.88779616 489.89601727 540.65092116 489.59851727 541.43717116 C488.47351727 544.12467116 488.47351727 544.12467116 486.47351727 547.12467116 C485.81351727 547.12467116 485.15351727 547.12467116 484.47351727 547.12467116 C484.20539227 547.92904616 483.93726727 548.73342116 483.66101727 549.56217116 C483.26914227 550.40779616 482.87726727 551.25342116 482.47351727 552.12467116 C481.48351727 552.45467116 480.49351727 552.78467116 479.47351727 553.12467116 C478.78311152 554.78164495 478.12045377 556.45024727 477.47351727 558.12467116 C475.47351727 560.93717116 475.47351727 560.93717116 473.47351727 563.12467116 C472.81351727 563.12467116 472.15351727 563.12467116 471.47351727 563.12467116 C471.3587907 563.70732741 471.24406414 564.28998366 471.12586102 564.89029616 C470.42527665 567.28990251 469.49159132 568.85328049 468.03601727 570.87467116 C467.60418133 571.48826491 467.17234539 572.10185866 466.72742352 572.73404616 C466.31363445 573.19295241 465.89984539 573.65185866 465.47351727 574.12467116 C464.81351727 574.12467116 464.15351727 574.12467116 463.47351727 574.12467116 C463.07326336 574.98705398 463.07326336 574.98705398 462.66492352 575.86685866 C461.43287232 578.20169667 460.02513451 580.163613 458.41101727 582.24967116 C456.24125532 585.06094379 456.24125532 585.06094379 454.47351727 588.12467116 C453.81351727 588.12467116 453.15351727 588.12467116 452.47351727 588.12467116 C452.22601727 588.84654616 451.97851727 589.56842116 451.72351727 590.31217116 C449.7858889 594.671835 446.80741316 597.79077527 443.47351727 601.12467116 C442.81351727 602.11467116 442.15351727 603.10467116 441.47351727 604.12467116 C440.81351727 604.12467116 440.15351727 604.12467116 439.47351727 604.12467116 C439.00945477 605.08373366 439.00945477 605.08373366 438.53601727 606.06217116 C437.47351727 608.12467116 437.47351727 608.12467116 436.47351727 609.12467116 C414.13874194 612.01571727 391.43926041 611.5564894 368.96344646 611.72556228 C363.82025793 611.76618453 358.67717001 611.81700496 353.53406414 611.86685866 C343.51395346 611.9625381 333.49378472 612.047273 323.47351727 612.12467116 C323.47351727 612.78467116 323.47351727 613.44467116 323.47351727 614.12467116 C320.83351727 614.45467116 318.19351727 614.78467116 315.47351727 615.12467116 C315.47351727 615.78467116 315.47351727 616.44467116 315.47351727 617.12467116 C313.87061197 617.93965678 312.26614449 618.75157044 310.66101727 619.56217116 C309.76769695 620.0146321 308.87437664 620.46709304 307.95398602 620.93326491 C305.47351727 622.12467116 305.47351727 622.12467116 302.47351727 623.12467116 C302.47351727 623.78467116 302.47351727 624.44467116 302.47351727 625.12467116 C301.48351727 625.12467116 300.49351727 625.12467116 299.47351727 625.12467116 C299.47351727 625.78467116 299.47351727 626.44467116 299.47351727 627.12467116 C298.26695477 628.08373366 298.26695477 628.08373366 297.03601727 629.06217116 C294.23630994 630.93503048 294.23630994 630.93503048 293.47351727 634.12467116 C292.81351727 634.12467116 292.15351727 634.12467116 291.47351727 634.12467116 C291.47351727 634.78467116 291.47351727 635.44467116 291.47351727 636.12467116 C290.81351727 636.12467116 290.15351727 636.12467116 289.47351727 636.12467116 C289.14351727 637.77467116 288.81351727 639.42467116 288.47351727 641.12467116 C287.81351727 641.12467116 287.15351727 641.12467116 286.47351727 641.12467116 C286.14351727 642.77467116 285.81351727 644.42467116 285.47351727 646.12467116 C284.81351727 646.12467116 284.15351727 646.12467116 283.47351727 646.12467116 C283.34976727 646.99092116 283.22601727 647.85717116 283.09851727 648.74967116 C282.49293606 652.0198097 281.59045691 654.99724015 280.47351727 658.12467116 C279.81351727 658.12467116 279.15351727 658.12467116 278.47351727 658.12467116 C278.14351727 710.26467116 277.81351727 762.40467116 277.47351727 816.12467116 C276.81351727 816.12467116 276.15351727 816.12467116 275.47351727 816.12467116 C274.26723719 818.45681264 273.30804347 820.62109255 272.47351727 823.12467116 C271.03601727 824.81217116 271.03601727 824.81217116 269.47351727 826.12467116 C268.81351727 826.12467116 268.15351727 826.12467116 267.47351727 826.12467116 C267.20539227 826.92904616 266.93726727 827.73342116 266.66101727 828.56217116 C266.26914227 829.40779616 265.87726727 830.25342116 265.47351727 831.12467116 C264.48351727 831.45467116 263.49351727 831.78467116 262.47351727 832.12467116 C262.14351727 833.77467116 261.81351727 835.42467116 261.47351727 837.12467116 C260.81351727 837.12467116 260.15351727 837.12467116 259.47351727 837.12467116 C259.14351727 838.11467116 258.81351727 839.10467116 258.47351727 840.12467116 C257.81351727 840.12467116 257.15351727 840.12467116 256.47351727 840.12467116 C256.47351727 840.78467116 256.47351727 841.44467116 256.47351727 842.12467116 C255.81351727 842.12467116 255.15351727 842.12467116 254.47351727 842.12467116 C254.39101727 842.86717116 254.30851727 843.60967116 254.22351727 844.37467116 C253.32754491 847.65990314 251.96071004 848.87065271 249.47351727 851.12467116 C249.14351727 851.78467116 248.81351727 852.44467116 248.47351727 853.12467116 C247.81351727 853.12467116 247.15351727 853.12467116 246.47351727 853.12467116 C246.14351727 854.11467116 245.81351727 855.10467116 245.47351727 856.12467116 C244.81351727 856.12467116 244.15351727 856.12467116 243.47351727 856.12467116 C243.14351727 857.77467116 242.81351727 859.42467116 242.47351727 861.12467116 C241.81351727 861.12467116 241.15351727 861.12467116 240.47351727 861.12467116 C240.47351727 861.78467116 240.47351727 862.44467116 240.47351727 863.12467116 C239.81351727 863.45467116 239.15351727 863.78467116 238.47351727 864.12467116 C238.14351727 865.11467116 237.81351727 866.10467116 237.47351727 867.12467116 C236.81351727 867.12467116 236.15351727 867.12467116 235.47351727 867.12467116 C235.07132977 868.08373366 235.07132977 868.08373366 234.66101727 869.06217116 C233.47351727 871.12467116 233.47351727 871.12467116 230.47351727 872.12467116 C230.14351727 873.77467116 229.81351727 875.42467116 229.47351727 877.12467116 C228.81351727 877.12467116 228.15351727 877.12467116 227.47351727 877.12467116 C227.16414227 877.74342116 226.85476727 878.36217116 226.53601727 878.99967116 C225.84851727 880.37467116 225.16101727 881.74967116 224.47351727 883.12467116 C223.81351727 883.12467116 223.15351727 883.12467116 222.47351727 883.12467116 C222.14351727 884.44467116 221.81351727 885.76467116 221.47351727 887.12467116 C220.81351727 887.12467116 220.15351727 887.12467116 219.47351727 887.12467116 C219.14351727 888.44467116 218.81351727 889.76467116 218.47351727 891.12467116 C217.81351727 891.12467116 217.15351727 891.12467116 216.47351727 891.12467116 C216.10226727 891.92904616 216.10226727 891.92904616 215.72351727 892.74967116 C214.1669919 895.70706936 212.43916053 898.42191167 210.47351727 901.12467116 C209.81351727 901.12467116 209.15351727 901.12467116 208.47351727 901.12467116 C208.20539227 901.92904616 207.93726727 902.73342116 207.66101727 903.56217116 C207.26914227 904.40779616 206.87726727 905.25342116 206.47351727 906.12467116 C205.48351727 906.45467116 204.49351727 906.78467116 203.47351727 907.12467116 C203.14351727 908.11467116 202.81351727 909.10467116 202.47351727 910.12467116 C201.81351727 910.12467116 201.15351727 910.12467116 200.47351727 910.12467116 C200.14351727 911.77467116 199.81351727 913.42467116 199.47351727 915.12467116 C198.81351727 915.12467116 198.15351727 915.12467116 197.47351727 915.12467116 C197.47351727 915.78467116 197.47351727 916.44467116 197.47351727 917.12467116 C196.81351727 917.12467116 196.15351727 917.12467116 195.47351727 917.12467116 C195.39101727 917.70217116 195.30851727 918.27967116 195.22351727 918.87467116 C194.267732 921.74202695 192.62266983 923.04267961 190.47351727 925.12467116 C190.14351727 926.11467116 189.81351727 927.10467116 189.47351727 928.12467116 C188.81351727 928.12467116 188.15351727 928.12467116 187.47351727 928.12467116 C187.14351727 929.11467116 186.81351727 930.10467116 186.47351727 931.12467116 C185.81351727 931.12467116 185.15351727 931.12467116 184.47351727 931.12467116 C184.23632977 931.82978835 183.99914227 932.53490554 183.75476727 933.26138991 C182.24849554 936.62753985 180.31767209 939.09450289 177.97351727 941.93717116 C176.78242352 943.40090163 176.78242352 943.40090163 175.56726727 944.89420241 C174.53086102 945.99828445 174.53086102 945.99828445 173.47351727 947.12467116 C172.81351727 947.12467116 172.15351727 947.12467116 171.47351727 947.12467116 C171.14351727 948.77467116 170.81351727 950.42467116 170.47351727 952.12467116 C169.81351727 952.12467116 169.15351727 952.12467116 168.47351727 952.12467116 C168.14351727 953.11467116 167.81351727 954.10467116 167.47351727 955.12467116 C166.81351727 955.12467116 166.15351727 955.12467116 165.47351727 955.12467116 C165.47351727 956.11467116 165.47351727 957.10467116 165.47351727 958.12467116 C164.81351727 958.12467116 164.15351727 958.12467116 163.47351727 958.12467116 C163.18476727 958.70217116 162.89601727 959.27967116 162.59851727 959.87467116 C161.03601727 962.99967116 161.03601727 962.99967116 159.47351727 966.12467116 C158.81351727 966.12467116 158.15351727 966.12467116 157.47351727 966.12467116 C157.14351727 967.11467116 156.81351727 968.10467116 156.47351727 969.12467116 C155.81351727 969.12467116 155.15351727 969.12467116 154.47351727 969.12467116 C154.41164227 969.66092116 154.34976727 970.19717116 154.28601727 970.74967116 C153.11005998 974.18708476 150.84324836 976.40815015 148.47351727 979.12467116 C147.81351727 980.11467116 147.15351727 981.10467116 146.47351727 982.12467116 C145.81351727 982.12467116 145.15351727 982.12467116 144.47351727 982.12467116 C144.18476727 982.70217116 143.89601727 983.27967116 143.59851727 983.87467116 C142.5568506 985.9580045 141.51518393 988.04133783 140.47351727 990.12467116 C139.81351727 990.12467116 139.15351727 990.12467116 138.47351727 990.12467116 C138.47351727 990.78467116 138.47351727 991.44467116 138.47351727 992.12467116 C137.81351727 992.12467116 137.15351727 992.12467116 136.47351727 992.12467116 C136.41164227 992.68154616 136.34976727 993.23842116 136.28601727 993.81217116 C135.12544036 997.11535158 133.07138281 998.84361849 130.47351727 1001.12467116 C129.81351727 1001.12467116 129.15351727 1001.12467116 128.47351727 1001.12467116 C128.14351727 1002.77467116 127.81351727 1004.42467116 127.47351727 1006.12467116 C126.81351727 1006.12467116 126.15351727 1006.12467116 125.47351727 1006.12467116 C125.10226727 1006.92904616 125.10226727 1006.92904616 124.72351727 1007.74967116 C123.1669919 1010.70706936 121.43916053 1013.42191167 119.47351727 1016.12467116 C118.81351727 1016.12467116 118.15351727 1016.12467116 117.47351727 1016.12467116 C117.39101727 1016.74342116 117.30851727 1017.36217116 117.22351727 1017.99967116 C116.47351727 1020.12467116 116.47351727 1020.12467116 114.53601727 1021.06217116 C111.69760459 1022.52438376 111.48147276 1024.17280151 110.47351727 1027.12467116 C109.81351727 1028.11467116 109.15351727 1029.10467116 108.47351727 1030.12467116 C107.81351727 1030.12467116 107.15351727 1030.12467116 106.47351727 1030.12467116 C106.47351727 1030.78467116 106.47351727 1031.44467116 106.47351727 1032.12467116 C105.81351727 1032.12467116 105.15351727 1032.12467116 104.47351727 1032.12467116 C104.14351727 1033.44467116 103.81351727 1034.76467116 103.47351727 1036.12467116 C102.81351727 1036.12467116 102.15351727 1036.12467116 101.47351727 1036.12467116 C101.14351727 1037.44467116 100.81351727 1038.76467116 100.47351727 1040.12467116 C99.81351727 1040.12467116 99.15351727 1040.12467116 98.47351727 1040.12467116 C98.14351727 1041.44467116 97.81351727 1042.76467116 97.47351727 1044.12467116 C96.81351727 1044.12467116 96.15351727 1044.12467116 95.47351727 1044.12467116 C95.47351727 1044.78467116 95.47351727 1045.44467116 95.47351727 1046.12467116 C94.81351727 1046.12467116 94.15351727 1046.12467116 93.47351727 1046.12467116 C93.37039227 1046.70217116 93.26726727 1047.27967116 93.16101727 1047.87467116 C92.36455262 1050.48128274 91.2828645 1052.09820226 89.47351727 1054.12467116 C88.81351727 1054.12467116 88.15351727 1054.12467116 87.47351727 1054.12467116 C87.47351727 1055.11467116 87.47351727 1056.10467116 87.47351727 1057.12467116 C86.81351727 1057.12467116 86.15351727 1057.12467116 85.47351727 1057.12467116 C85.14351727 1058.11467116 84.81351727 1059.10467116 84.47351727 1060.12467116 C83.81351727 1060.12467116 83.15351727 1060.12467116 82.47351727 1060.12467116 C82.10226727 1061.20748366 82.10226727 1061.20748366 81.72351727 1062.31217116 C80.35082135 1065.40073698 78.74998431 1067.63478534 76.47351727 1070.12467116 C75.81351727 1070.12467116 75.15351727 1070.12467116 74.47351727 1070.12467116 C74.39101727 1070.74342116 74.30851727 1071.36217116 74.22351727 1071.99967116 C73.47351727 1074.12467116 73.47351727 1074.12467116 71.53601727 1075.06217116 C68.69760459 1076.52438376 68.48147276 1078.17280151 67.47351727 1081.12467116 C66.81351727 1082.11467116 66.15351727 1083.10467116 65.47351727 1084.12467116 C64.81351727 1084.12467116 64.15351727 1084.12467116 63.47351727 1084.12467116 C63.47351727 1084.78467116 63.47351727 1085.44467116 63.47351727 1086.12467116 C62.81351727 1086.12467116 62.15351727 1086.12467116 61.47351727 1086.12467116 C61.37039227 1086.88779616 61.26726727 1087.65092116 61.16101727 1088.43717116 C60.42640533 1091.308836 59.80191077 1092.3550921 57.47351727 1094.12467116 C56.81351727 1094.12467116 56.15351727 1094.12467116 55.47351727 1094.12467116 C55.47351727 1095.11467116 55.47351727 1096.10467116 55.47351727 1097.12467116 C54.81351727 1097.12467116 54.15351727 1097.12467116 53.47351727 1097.12467116 C53.14351727 1098.11467116 52.81351727 1099.10467116 52.47351727 1100.12467116 C51.81351727 1100.12467116 51.15351727 1100.12467116 50.47351727 1100.12467116 C50.22601727 1100.84654616 49.97851727 1101.56842116 49.72351727 1102.31217116 C48.35082135 1105.40073698 46.74998431 1107.63478534 44.47351727 1110.12467116 C43.81351727 1110.12467116 43.15351727 1110.12467116 42.47351727 1110.12467116 C42.20539227 1110.92904616 41.93726727 1111.73342116 41.66101727 1112.56217116 C41.26914227 1113.40779616 40.87726727 1114.25342116 40.47351727 1115.12467116 C39.48351727 1115.45467116 38.49351727 1115.78467116 37.47351727 1116.12467116 C36.36715331 1118.5153585 36.36715331 1118.5153585 35.47351727 1121.12467116 C34.81351727 1122.11467116 34.15351727 1123.10467116 33.47351727 1124.12467116 C32.81351727 1124.12467116 32.15351727 1124.12467116 31.47351727 1124.12467116 C31.16414227 1124.74342116 30.85476727 1125.36217116 30.53601727 1125.99967116 C29.84851727 1127.37467116 29.16101727 1128.74967116 28.47351727 1130.12467116 C27.81351727 1130.12467116 27.15351727 1130.12467116 26.47351727 1130.12467116 C26.34976727 1130.76404616 26.22601727 1131.40342116 26.09851727 1132.06217116 C25.78914227 1133.08310866 25.78914227 1133.08310866 25.47351727 1134.12467116 C24.81351727 1134.45467116 24.15351727 1134.78467116 23.47351727 1135.12467116 C22.97851727 1135.97029616 22.48351727 1136.81592116 21.97351727 1137.68717116 C21.47851727 1138.49154616 20.98351727 1139.29592116 20.47351727 1140.12467116 C19.81351727 1140.12467116 19.15351727 1140.12467116 18.47351727 1140.12467116 C18.04039227 1141.26935866 18.04039227 1141.26935866 17.59851727 1142.43717116 C16.47351727 1145.12467116 16.47351727 1145.12467116 14.47351727 1148.12467116 C13.81351727 1148.12467116 13.15351727 1148.12467116 12.47351727 1148.12467116 C12.47351727 1148.78467116 12.47351727 1149.44467116 12.47351727 1150.12467116 C11.81351727 1150.12467116 11.15351727 1150.12467116 10.47351727 1150.12467116 C10.30142742 1151.00058913 10.30142742 1151.00058913 10.12586102 1151.89420241 C9.42651658 1154.28537411 8.50046228 1155.80887991 7.03601727 1157.81217116 C6.60418133 1158.41416335 6.17234539 1159.01615554 5.72742352 1159.63638991 C4.47351727 1161.12467116 4.47351727 1161.12467116 2.47351727 1162.12467116 C2.14351727 1163.11467116 1.81351727 1164.10467116 1.47351727 1165.12467116 C-0.17648273 1165.45467116 -1.82648273 1165.78467116 -3.52648273 1166.12467116 C-3.62340416 1096.95943591 -3.71957559 1027.79419964 -3.81249348 958.62895888 C-3.81460808 957.05510846 -3.81460808 957.05510846 -3.81676541 955.44946307 C-3.84751174 932.5629144 -3.87814525 909.67636559 -3.90866501 886.78981662 C-3.92366559 875.54149011 -3.93869071 864.29316364 -3.95372883 853.04483718 C-3.95522367 851.92639968 -3.95671851 850.80796219 -3.95825865 849.65563265 C-4.00109357 817.61429427 -4.04506869 785.57295768 -4.09017578 753.53162243 C-4.23996352 647.12613856 -4.38407662 540.72064373 -4.61520401 194.33207656 C-4.61820544 178.67981476 -4.623726 163.02755539 -4.63062397 147.37529487 C-4.63832697 129.81434709 -4.64236566 112.25340282 -4.64135781 94.69245328 C-4.64091936 85.77140411 -4.64196776 76.85036179 -4.64741817 67.92931408 C-4.65192298 60.54486648 -4.65310195 53.16042838 -4.6497125 45.77598 C-4.64810406 42.06360672 -4.64806243 38.35125191 -4.65242216 34.63888043 C-4.65706935 30.64523089 -4.65397251 26.65162477 -4.65010181 22.65797443 C-4.65267351 21.5075043 -4.6552452 20.35703418 -4.65789482 19.17170132 C-4.61714786 0.22783659 -4.61714786 0.22783659 0 0 Z " fill="#057FFF" transform="translate(621.5264827348292,437.87532883509994)"/>
</svg>
