<?xml version="1.0" encoding="UTF-8"?>
<svg version="1.1" xmlns="http://www.w3.org/2000/svg" width="2557" height="2557">
<path d="M0 0 C8.0379989 6.5440678 14.73551452 14.94894519 21.10546875 23.0703125 C23.20354029 25.74210819 25.34579493 28.37328363 27.5 31 C28.25152344 31.91652344 29.00304688 32.83304688 29.77734375 33.77734375 C30.53144531 34.69644531 31.28554687 35.61554687 32.0625 36.5625 C33.56278317 38.39560162 35.06278408 40.22893427 36.5625 42.0625 C37.305 42.97 38.0475 43.8775 38.8125 44.8125 C117.5625 141.0625 117.5625 141.0625 119.828125 143.83203125 C121.27547051 145.60072795 122.72335301 147.36898543 124.171875 149.13671875 C129.21575065 155.29429688 134.23846456 161.46879891 139.25585938 167.64794922 C143.8443077 173.2974426 148.44955127 178.93299405 153.0625 184.5625 C154.56264281 186.39571648 156.06264082 188.22905146 157.5625 190.0625 C158.305 190.97 159.0475 191.8775 159.8125 192.8125 C308.31250008 374.3125001 308.31250008 374.3125001 429.828125 522.83203125 C431.27547051 524.60072795 432.72335301 526.36898543 434.171875 528.13671875 C439.21575065 534.29429688 444.23846456 540.46879891 449.25585938 546.64794922 C453.8443077 552.2974426 458.44955127 557.93299405 463.0625 563.5625 C464.56264281 565.39571648 466.06264082 567.22905146 467.5625 569.0625 C468.305 569.97 469.0475 570.8775 469.8125 571.8125 C618.31250001 753.31250001 618.31250001 753.31250001 739.81640625 901.8203125 C741.29941051 903.63086727 742.78631919 905.43823186 744.27734375 907.2421875 C749.60349014 913.70095904 754.74532017 920.28616528 759.82275391 926.94042969 C761.76944339 929.48745705 763.7295846 932.02409712 765.6875 934.5625 C766.51716782 935.64304436 767.34658176 936.7237837 768.17578125 937.8046875 C769.73076653 939.83167225 771.28938818 941.85565413 772.85302734 943.87597656 C781.24780406 954.72389594 789.36291023 965.67447321 797 977.0703125 C799.23215648 980.38803307 801.5564152 983.62266241 803.92578125 986.84375 C808.24058189 992.74395567 812.26702838 998.80985135 816.25 1004.9375 C816.61655701 1005.50041748 816.98311401 1006.06333496 817.36077881 1006.64331055 C834.87584889 1033.55350619 851.01739521 1061.19672191 866.0625 1089.5625 C866.6282373 1090.62549316 867.19397461 1091.68848633 867.77685547 1092.78369141 C909.92852517 1172.20754882 940.21983992 1258.36610909 975.79821777 1459.89697266 C976.04763312 1462.41255396 976.30679545 1464.92696229 976.56738281 1467.44140625 C982.28168694 1523.86984183 982.12001411 1583.63927855 976.31896973 1640.05194092 C976.0454651 1642.72925314 975.78514051 1645.4076513 975.52636719 1648.08642578 C966.80825955 1737.49764927 946.82056992 1825.80726794 874.94335938 1998.77539062 C873.64049443 2001.41867537 872.35221736 2004.06903095 871.0625 2006.71875 C865.05251216 2018.9950403 858.49698708 2030.90532658 851.67675781 2042.74853516 C850.10110727 2045.49520003 848.54372721 2048.25137495 846.9921875 2051.01171875 C840.85470428 2061.90572652 834.41739599 2072.55088245 827.65722656 2083.06884766 C825.96297729 2085.71812231 824.28852566 2088.37918607 822.6171875 2091.04296875 C815.87491687 2101.7662657 808.91700851 2112.25901103 801.51269531 2122.53564453 C800.06194587 2124.56327448 798.63323957 2126.6046772 797.2109375 2128.65234375 C776.22523374 2158.82084826 753.13447056 2188.02776782 728.2890625 2215.12109375 C726.37116793 2217.22404833 724.48873955 2219.34919156 722.625 2221.5 C716.24892142 2228.82570731 709.71485898 2236.02413654 702.77368164 2242.81884766 C701.08130456 2244.54333861 699.51568256 2246.32888897 697.94921875 2248.16796875 C693.71644156 2253.03203761 689.1936029 2257.57816963 684.625 2262.125 C683.41360352 2263.34219727 683.41360352 2263.34219727 682.17773438 2264.58398438 C677.84496145 2268.90977459 673.43043611 2273.06243208 668.78881836 2277.05444336 C666.60797757 2278.95955629 664.57835234 2280.98462143 662.5625 2283.0625 C659.25263302 2286.41183729 655.85503051 2289.56175956 652.28125 2292.625 C650.0788032 2294.5482634 647.92992145 2296.52295744 645.78686523 2298.51196289 C640.65789186 2303.26940142 635.4171967 2307.80292704 629.96484375 2312.19140625 C626.67286968 2314.88081171 623.46245032 2317.65420396 620.25 2320.4375 C613.91770971 2325.90353991 607.40267013 2331.09510366 600.79052734 2336.21679688 C599.0977856 2337.5350213 597.41631445 2338.86624402 595.73828125 2340.203125 C586.03934707 2347.91976423 576.09324189 2355.28387502 566.0625 2362.5625 C565.41071777 2363.03703613 564.75893555 2363.51157227 564.08740234 2364.00048828 C541.81581501 2380.15807688 518.69048198 2395.46861601 495.0625 2409.5625 C493.66741211 2410.39587891 493.66741211 2410.39587891 492.24414062 2411.24609375 C477.39521898 2420.08262896 462.32682803 2428.46723383 447.0625 2436.5625 C446.02851074 2437.11373535 444.99452148 2437.6649707 443.92919922 2438.23291016 C400.82476569 2461.15714256 356.10230284 2480.36084566 310.0625 2496.5625 C309.31973816 2496.8246228 308.57697632 2497.08674561 307.81170654 2497.35681152 C231.70152099 2524.16709523 151.74317515 2541.15009338 71.39624023 2548.34960938 C69.06975768 2548.56183793 66.74488902 2548.78744326 64.41992188 2549.015625 C7.75663877 2554.47574472 -51.73796464 2554.45936018 -108.38458252 2548.81573486 C-111.06797392 2548.54955773 -113.75234044 2548.29540343 -116.43701172 2548.04248047 C-189.26324826 2541.09916462 -261.43423465 2526.45966699 -330.9375 2503.5625 C-331.73931702 2503.29910828 -332.54113403 2503.03571655 -333.36724854 2502.76434326 C-354.82908508 2495.7034877 -376.03725346 2488.16165577 -396.9375 2479.5625 C-398.56703613 2478.89420166 -398.56703613 2478.89420166 -400.22949219 2478.21240234 C-416.67247938 2471.4387496 -432.85295357 2464.14437511 -448.9375 2456.5625 C-449.98292969 2456.07136719 -451.02835938 2455.58023438 -452.10546875 2455.07421875 C-500.65334996 2432.21751443 -546.86117179 2405.14728533 -590.9375 2374.5625 C-591.71496582 2374.02351074 -592.49243164 2373.48452148 -593.29345703 2372.92919922 C-603.68619613 2365.70566829 -613.86172157 2358.22057083 -623.9375 2350.5625 C-624.65502441 2350.01916016 -625.37254883 2349.47582031 -626.11181641 2348.91601562 C-634.86012363 2342.2898511 -643.49215642 2335.57200464 -651.9375 2328.5625 C-653.70793835 2327.12451356 -655.47878196 2325.68702596 -657.25 2324.25 C-666.60990809 2316.58824666 -675.76599584 2308.69172177 -684.72265625 2300.5625 C-686.71162502 2298.76646471 -688.72313194 2297.00296697 -690.75 2295.25 C-698.47675847 2288.51264353 -706.05480706 2281.57055883 -713.22509766 2274.24243164 C-714.9377048 2272.56229909 -716.71307456 2271.00875459 -718.5390625 2269.453125 C-723.40426558 2265.21885443 -727.95187211 2260.69490663 -732.5 2256.125 C-733.31146484 2255.31740234 -734.12292969 2254.50980469 -734.95898438 2253.67773438 C-739.28477459 2249.34496145 -743.43743208 2244.93043611 -747.42944336 2240.28881836 C-749.33455629 2238.10797757 -751.35962143 2236.07835234 -753.4375 2234.0625 C-756.80850065 2230.73129193 -759.9826403 2227.31138372 -763.06640625 2223.71484375 C-765.26829829 2221.18197838 -767.53945826 2218.71917478 -769.8125 2216.25 C-773.95995258 2211.70725315 -777.86982695 2207.02130038 -781.73046875 2202.234375 C-783.85373338 2199.6639095 -786.05561849 2197.20330637 -788.3125 2194.75 C-793.37403196 2189.18758728 -797.95346 2183.29018985 -802.55224609 2177.34619141 C-804.2916957 2175.10642778 -806.0518401 2172.88349948 -807.8125 2170.66040039 C-819.29542309 2156.13373374 -830.51378479 2141.47503394 -840.85546875 2126.109375 C-843.3439686 2122.41468648 -845.90381746 2118.77865093 -848.4987793 2115.15820312 C-854.82271685 2106.32999041 -860.68549055 2097.26411215 -866.40332031 2088.03369141 C-867.94429778 2085.55155043 -869.49820009 2083.07790778 -871.0546875 2080.60546875 C-917.52004809 2006.54527153 -953.76449055 1926.30063717 -1017.25 1650.0625 C-1017.36317566 1648.92746536 -1017.36317566 1648.92746536 -1017.4786377 1647.76950073 C-1018.04021037 1642.03920744 -1018.50393808 1636.30377891 -1018.9375 1630.5625 C-1019.02363556 1629.45539673 -1019.10977112 1628.34829346 -1019.19851685 1627.2076416 C-1020.98980397 1603.55988209 -1021.30092464 1579.970879 -1021.25555801 1556.2624588 C-1021.24991702 1553.2684575 -1021.24709702 1550.27446187 -1021.24447632 1547.28045654 C-1021.20948498 1519.78710396 -1021.02264798 1492.39901944 -1018.19073486 1465.02502441 C-1017.92373665 1462.42866143 -1017.66981105 1459.83122585 -1017.41748047 1457.23339844 C-1008.8790432 1370.2759396 -989.48379905 1284.78482152 -895.39990234 1066.12011719 C-893.62343294 1063.01322345 -891.903575 1059.87775202 -890.1887207 1056.73657227 C-880.59630458 1039.19283318 -869.94000233 1022.25083076 -858.9375 1005.5625 C-858.53644043 1004.95067871 -858.13538086 1004.33885742 -857.72216797 1003.70849609 C-843.05524161 981.34547924 -827.38466163 959.64792115 -810.9375 938.5625 C-810.31077393 937.75449951 -810.31077393 937.75449951 -809.67138672 936.93017578 C-802.46102547 927.63495604 -795.02240719 918.53928628 -787.52099609 909.47802734 C-783.97463123 905.18805221 -780.45885259 900.87300694 -776.9375 896.5625 C-775.43764304 894.72904964 -773.9376406 892.89571829 -772.4375 891.0625 C-771.695 890.155 -770.9525 889.2475 -770.1875 888.3125 C-673.4375 770.0625 -673.4375 770.0625 -671.16796875 767.2890625 C-669.73250065 765.53432216 -668.29756204 763.77914845 -666.86328125 762.0234375 C-661.62544837 755.6141115 -656.36572781 749.22306804 -651.10205078 742.83496094 C-646.36763237 737.08794938 -641.64823971 731.32894221 -636.9375 725.5625 C-635.43764304 723.72904964 -633.9376406 721.89571829 -632.4375 720.0625 C-631.695 719.155 -630.9525 718.2475 -630.1875 717.3125 C-515.4375 577.0625 -515.4375 577.0625 -513.16796875 574.2890625 C-511.73250065 572.53432216 -510.29756204 570.77914845 -508.86328125 569.0234375 C-503.62544837 562.6141115 -498.36572781 556.22306804 -493.10205078 549.83496094 C-488.36763237 544.08794938 -483.64823971 538.32894221 -478.9375 532.5625 C-477.43764304 530.72904964 -475.9376406 528.89571829 -474.4375 527.0625 C-473.695 526.155 -472.9525 525.2475 -472.1875 524.3125 C-366.4375 395.0625 -366.4375 395.0625 -364.16796875 392.2890625 C-362.73250065 390.53432216 -361.29756204 388.77914845 -359.86328125 387.0234375 C-354.62544837 380.6141115 -349.36572781 374.22306804 -344.10205078 367.83496094 C-339.36763237 362.08794938 -334.64823971 356.32894221 -329.9375 350.5625 C-328.43764304 348.72904964 -326.9376406 346.89571829 -325.4375 345.0625 C-324.695 344.155 -323.9525 343.2475 -323.1875 342.3125 C-217.4375 213.0625 -217.4375 213.0625 -215.16796875 210.2890625 C-213.73250065 208.53432216 -212.29756204 206.77914845 -210.86328125 205.0234375 C-205.62544837 198.6141115 -200.36572781 192.22306804 -195.10205078 185.83496094 C-190.36763237 180.08794938 -185.64823971 174.32894221 -180.9375 168.5625 C-179.43764304 166.72904964 -177.9376406 164.89571829 -176.4375 163.0625 C-175.695 162.155 -174.9525 161.2475 -174.1875 160.3125 C-68.4375 31.0625 -68.4375 31.0625 -66.18359375 28.30859375 C-64.6954779 26.48921038 -63.20848388 24.66890881 -61.72265625 22.84765625 C-60.23659724 21.02729925 -58.7456736 19.21090308 -57.25 17.3984375 C-55.64053571 15.42466879 -54.05907644 13.42786957 -52.5 11.4140625 C-39.96335858 -4.60088237 -18.31286424 -12.54153732 0 0 Z M-51.9375 365.5625 C-52.75863281 366.17996094 -53.57976562 366.79742187 -54.42578125 367.43359375 C-57.04075397 369.65001697 -59.05552631 371.94424049 -61.1875 374.625 C-61.96609375 375.59566406 -62.7446875 376.56632812 -63.546875 377.56640625 C-64.73023438 379.04947266 -64.73023438 379.04947266 -65.9375 380.5625 C-67.43482735 382.3980168 -68.93478348 384.23139264 -70.4375 386.0625 C-72.62975146 388.7414992 -74.82169468 391.42074208 -77.01171875 394.1015625 C-82.24955163 400.5108885 -87.50927219 406.90193196 -92.77294922 413.29003906 C-97.50736763 419.03705062 -102.22676029 424.79605779 -106.9375 430.5625 C-108.43735696 432.39595036 -109.9373594 434.22928171 -111.4375 436.0625 C-112.55125 437.42375 -112.55125 437.42375 -113.6875 438.8125 C-138.4375 469.0625 -138.4375 469.0625 -140.70703125 471.8359375 C-142.14249935 473.59067784 -143.57743796 475.34585155 -145.01171875 477.1015625 C-148.39735798 481.24443343 -151.78738707 485.38325803 -155.1953125 489.5078125 C-158.78466511 493.85231853 -162.3645068 498.20453102 -165.9375 502.5625 C-166.46279297 503.2023584 -166.98808594 503.8422168 -167.52929688 504.50146484 C-189.68247528 531.56569213 -208.03056138 561.05652632 -224.49365234 591.8671875 C-225.86565268 594.42837851 -227.25375368 596.98022171 -228.64453125 599.53125 C-255.195382 648.67463786 -273.88702681 702.36845124 -286.9375 756.5625 C-287.19209991 757.61766815 -287.19209991 757.61766815 -287.45184326 758.69415283 C-291.62587377 776.09936271 -294.71262884 793.59682001 -297.25 811.3125 C-297.37346802 812.17234497 -297.49693604 813.03218994 -297.62414551 813.91809082 C-301.27952806 839.661422 -303.17149307 865.3167059 -303.1875 891.3125 C-303.18817474 892.31017395 -303.18884949 893.3078479 -303.18954468 894.33575439 C-303.11250108 966.83882364 -286.5907526 1035.74025913 -253.9375 1100.5625 C-253.47988281 1101.4788623 -253.02226563 1102.39522461 -252.55078125 1103.33935547 C-240.45551254 1127.46011249 -225.46700972 1150.25267911 -208.9375 1171.5625 C-208.29216309 1172.39491211 -208.29216309 1172.39491211 -207.63378906 1173.24414062 C-199.4031275 1183.84060625 -191.074882 1194.32645887 -182.03515625 1204.25 C-180.24242554 1206.22634372 -178.48954773 1208.2270673 -176.75 1210.25 C-168.0544244 1220.19630907 -158.88623001 1229.70692204 -149.5625 1239.0625 C-148.82604248 1239.8035498 -148.08958496 1240.54459961 -147.33081055 1241.30810547 C-143.29264482 1245.33489608 -139.15964351 1249.18284756 -134.83984375 1252.90527344 C-131.85895938 1255.50207055 -129.00039699 1258.22523727 -126.125 1260.9375 C-121.13204716 1265.60933901 -116.03181243 1270.06050315 -110.69140625 1274.3359375 C-108.22614068 1276.32913094 -105.81258198 1278.37177277 -103.41015625 1280.43994141 C-95.92199206 1286.87308002 -88.14046113 1292.87763866 -80.25585938 1298.81494141 C-77.86906995 1300.61408196 -75.48903319 1302.42190947 -73.109375 1304.23046875 C-36.34810196 1332.08397963 2.68210442 1356.83563979 42.80279541 1379.54766846 C55.33755237 1386.64816282 67.62915829 1394.12462565 79.91503906 1401.64501953 C83.5982536 1403.88888914 87.30020525 1406.09972245 91.00708008 1408.30419922 C106.85567632 1417.73216375 122.42336168 1427.6310799 137.69775391 1437.96386719 C140.07006851 1439.56761652 142.44563655 1441.16648933 144.82138062 1442.76515198 C158.01445115 1451.64785524 171.12628677 1460.6112574 183.95166016 1470.02099609 C186.1924652 1471.65741097 188.44425654 1473.27768633 190.69921875 1474.89453125 C199.61952978 1481.29216978 208.39884143 1487.8216432 217.0625 1494.5625 C218.63303498 1495.76003292 220.20357826 1496.95755542 221.77490234 1498.15405273 C228.74612626 1503.47341356 235.55362565 1508.98338177 242.34375 1514.53125 C245.29361391 1516.94099799 248.26430078 1519.32220581 251.25 1521.6875 C256.70623289 1526.04155563 262.02337513 1530.55698341 267.33300781 1535.08740234 C269.09238878 1536.58799238 270.85473299 1538.08505308 272.6171875 1539.58203125 C279.05811641 1545.06500173 285.3992936 1550.62908021 291.6328125 1556.34765625 C293.66765415 1558.20256817 295.72571247 1560.01678798 297.8125 1561.8125 C307.72113548 1570.44716806 317.21414947 1579.55390011 326.40673828 1588.94360352 C328.70517659 1591.27813755 330.92483365 1593.45630024 333.5234375 1595.4609375 C336.41459107 1597.85392307 338.68270154 1600.51387193 341.1171875 1603.359375 C344.57728202 1607.27803627 348.33642297 1610.89894104 352.0625 1614.5625 C357.0590994 1619.47526384 361.91736895 1624.41967585 366.48535156 1629.73583984 C368.73803073 1632.34490262 371.08804784 1634.85269025 373.4375 1637.375 C377.68735297 1641.97428532 381.69826503 1646.7133794 385.625 1651.59375 C388.49176448 1655.08532212 391.46034156 1658.47767982 394.4375 1661.875 C400.11609728 1668.37861505 405.51532872 1675.05663875 410.78027344 1681.89794922 C412.00654246 1683.48985748 413.2413552 1685.07517342 414.4765625 1686.66015625 C416.56326502 1689.34840004 418.63457507 1692.04662029 420.69189453 1694.75732422 C421.62784943 1695.99003717 422.56644661 1697.22074726 423.50732422 1698.44970703 C440.76814771 1721.06676422 456.51321997 1745.12208196 471.0625 1769.5625 C471.91255615 1770.98296631 471.91255615 1770.98296631 472.77978516 1772.43212891 C516.36616603 1845.58781287 545.21165391 1924.54421159 562.54096985 2013.90098572 C563.55381062 2019.17260843 564.70892553 2024.3675366 566.0625 2029.5625 C570.18279392 2025.58798929 573.86656654 2021.35867248 577.5 2016.9375 C578.10763184 2016.19822266 578.71526367 2015.45894531 579.34130859 2014.69726562 C586.24006113 2006.2234311 592.68801498 1997.43412841 599.0625 1988.5625 C599.57522461 1987.85125977 600.08794922 1987.14001953 600.61621094 1986.40722656 C619.04608175 1960.78287137 635.82943783 1934.20285653 651.0625 1906.5625 C651.65289063 1905.49676758 652.24328125 1904.43103516 652.8515625 1903.33300781 C674.34316878 1864.40805069 691.7931587 1823.66885482 706.0625 1781.5625 C706.43536133 1780.47372559 706.80822266 1779.38495117 707.19238281 1778.26318359 C728.71428877 1715.02977417 741.15285203 1648.20209846 745.0625 1581.5625 C745.14709473 1580.2619165 745.14709473 1580.2619165 745.23339844 1578.93505859 C750.44021141 1497.55164758 740.58900743 1414.85679065 668.0625 1200.5625 C667.5768457 1199.55268066 667.09119141 1198.54286133 666.59082031 1197.50244141 C659.67272036 1183.17969913 652.06273117 1169.30683783 644.0625 1155.5625 C643.50643066 1154.60069824 642.95036133 1153.63889648 642.37744141 1152.64794922 C627.49970663 1127.00360121 611.07120875 1102.11894425 593.0625 1078.5625 C592.19092007 1077.40791893 591.31980254 1076.25298862 590.44921875 1075.09765625 C583.87008147 1066.41272853 576.96464563 1057.99097376 570.0625 1049.5625 C569.23363281 1048.54800781 568.40476562 1047.53351562 567.55078125 1046.48828125 C565.38995819 1043.84476124 563.22651867 1041.20340427 561.0625 1038.5625 C559.56235719 1036.72928352 558.06235918 1034.89594854 556.5625 1033.0625 C555.82 1032.155 555.0775 1031.2475 554.3125 1030.3125 C531.0625 1001.89583333 507.8125 973.47916667 484.5625 945.0625 C483.81355469 944.14726563 483.06460938 943.23203125 482.29296875 942.2890625 C480.85750065 940.53432216 479.42256204 938.77914845 477.98828125 937.0234375 C473.35926182 931.3590921 468.71436094 925.70809447 464.0625 920.0625 C458.71564796 913.57344999 453.38193682 907.07405167 448.0625 900.5625 C446.56264304 898.72904964 445.0626406 896.89571829 443.5625 895.0625 C410.5625 854.72916667 377.5625 814.39583333 344.5625 774.0625 C343.81355469 773.14726563 343.06460938 772.23203125 342.29296875 771.2890625 C340.85750065 769.53432216 339.42256204 767.77914845 337.98828125 766.0234375 C333.35926182 760.3590921 328.71436094 754.70809447 324.0625 749.0625 C318.71564796 742.57344999 313.38193682 736.07405167 308.0625 729.5625 C306.56264304 727.72904964 305.0626406 725.89571829 303.5625 724.0625 C270.5625 683.72916667 237.5625 643.39583333 204.5625 603.0625 C203.81355469 602.14726563 203.06460937 601.23203125 202.29296875 600.2890625 C200.85750065 598.53432216 199.42256204 596.77914845 197.98828125 595.0234375 C193.35926182 589.3590921 188.71436094 583.70809447 184.0625 578.0625 C178.71564796 571.57344999 173.38193682 565.07405167 168.0625 558.5625 C166.56264304 556.72904964 165.0626406 554.89571829 163.5625 553.0625 C127.5625 509.0625 91.5625 465.0625 55.5625 421.0625 C54.81355469 420.14726562 54.06460937 419.23203125 53.29296875 418.2890625 C51.85750065 416.53432216 50.42256204 414.77914845 48.98828125 413.0234375 C43.75081124 406.61455553 38.49346034 400.22227701 33.22705078 393.8371582 C30.63455875 390.69264598 28.04371914 387.5473258 25.48046875 384.37890625 C23.35824095 381.75864251 21.21911843 379.1545112 19.0625 376.5625 C18.33804687 375.68980469 17.61359375 374.81710937 16.8671875 373.91796875 C8.55374866 364.25757902 -1.05419318 356.6684976 -14.13330078 355.33935547 C-28.55505158 354.39176772 -40.26927028 356.60416624 -51.9375 365.5625 Z M-553.9375 978.5625 C-555.66648186 980.39820913 -557.27595377 982.24285613 -558.875 984.1875 C-559.36444092 984.7743457 -559.85388184 985.36119141 -560.3581543 985.96582031 C-564.19452923 990.59281407 -567.9122008 995.30898666 -571.60375977 1000.05175781 C-575.84117332 1005.48171016 -580.21362084 1010.79452926 -584.60253906 1016.10229492 C-588.59056809 1020.9254194 -592.55690266 1025.76506985 -596.5 1030.625 C-597.29833252 1031.60895752 -597.29833252 1031.60895752 -598.11279297 1032.61279297 C-599.18488147 1033.93461273 -600.2568219 1035.25655259 -601.32861328 1036.57861328 C-603.48727289 1039.24041419 -605.64841906 1041.9001891 -607.81005859 1044.55957031 C-608.89565691 1045.89564121 -609.98061735 1047.23223067 -611.06494141 1048.56933594 C-613.74767143 1051.87623762 -616.4393596 1055.17488959 -619.15234375 1058.45703125 C-627.47083716 1068.54949731 -635.28492898 1078.95796549 -642.9375 1089.5625 C-643.43572266 1090.24860352 -643.93394531 1090.93470703 -644.44726562 1091.64160156 C-696.24320551 1163.09757005 -734.57886594 1243.38290776 -786.9375 1492.5625 C-787.02427002 1493.8623584 -787.02427002 1493.8623584 -787.11279297 1495.18847656 C-792.25797272 1574.54943904 -783.24446797 1655.52897077 -725.9375 1839.5625 C-725.55029785 1840.46000977 -725.1630957 1841.35751953 -724.76416016 1842.28222656 C-696.8072072 1906.67477769 -659.88811889 1966.44047973 -615.43457031 2020.72900391 C-614.10330047 2022.35944039 -612.78143831 2023.99754819 -611.4609375 2025.63671875 C-606.90999636 2031.27313171 -602.17282326 2036.68301249 -597.26953125 2042.015625 C-595.31344748 2044.15191749 -593.39562303 2046.31030657 -591.5 2048.5 C-582.08700204 2059.29068578 -572.15724483 2069.50166431 -562.02075195 2079.60961914 C-559.73988023 2081.88509584 -557.46445025 2084.16591717 -555.18945312 2086.44726562 C-553.71646659 2087.91959181 -552.24317014 2089.391608 -550.76953125 2090.86328125 C-550.10162064 2091.53321609 -549.43371002 2092.20315094 -548.74555969 2092.89338684 C-544.85767142 2096.76226284 -540.86455534 2100.45304849 -536.70703125 2104.03108215 C-534.11936149 2106.27054735 -531.62913539 2108.60497668 -529.125 2110.9375 C-524.56281976 2115.14758254 -519.8844548 2119.15694896 -515.046875 2123.05078125 C-512.64618135 2124.99003504 -510.26370166 2126.94536255 -507.890625 2128.91796875 C-499.73196544 2135.6966661 -491.5202103 2142.3224389 -482.9375 2148.5625 C-482.29796387 2149.02946289 -481.65842773 2149.49642578 -480.99951172 2149.97753906 C-475.66663899 2153.86885993 -470.30896745 2157.7246613 -464.9375 2161.5625 C-464.12684082 2162.14225586 -463.31618164 2162.72201172 -462.48095703 2163.31933594 C-450.5517836 2171.82707287 -438.42959512 2179.90612993 -425.9375 2187.5625 C-424.9980957 2188.14112793 -424.05869141 2188.71975586 -423.09082031 2189.31591797 C-407.34583912 2198.98871677 -391.33574256 2208.04466021 -374.9375 2216.5625 C-374.06511688 2217.01592773 -374.06511688 2217.01592773 -373.17510986 2217.47851562 C-306.12014875 2252.27301974 -234.20343254 2276.65754616 -65.9375 2301.5625 C-64.88788086 2301.63597656 -63.83826172 2301.70945312 -62.75683594 2301.78515625 C18.66407813 2307.19212617 101.76024952 2297.09567978 305.46240234 2229.76220703 C308.0625 2228.5625 308.0625 2228.5625 310.88525391 2227.59326172 C313.7348762 2226.51247603 315.7756817 2225.5852698 318.0625 2223.5625 C319.66554883 2219.28656054 319.85072854 2215.09616364 320.0625 2210.5625 C320.27087231 2208.43203922 320.48179501 2206.30182628 320.6953125 2204.171875 C326.73231471 2125.21089309 316.6779353 2044.89272302 278.0625 1944.5625 C277.59908203 1943.54220703 277.13566406 1942.52191406 276.65820312 1941.47070312 C258.94643194 1902.76720313 236.27817729 1867.02734972 210.0625 1833.5625 C209.33546875 1832.63179687 208.6084375 1831.70109375 207.859375 1830.7421875 C203.75449424 1825.55268378 199.49832459 1820.49717254 195.20751953 1815.46142578 C192.18725397 1811.91279721 189.23530444 1808.31735424 186.3125 1804.6875 C183.32742967 1801.01724449 180.24654893 1797.61236622 176.83631897 1794.33726501 C175.10173101 1792.60175193 173.51356504 1790.8038637 171.92358398 1788.93579102 C167.7865928 1784.17785311 163.37247596 1779.72856296 158.91015625 1775.27734375 C158.05119247 1774.41742325 157.1922287 1773.55750275 156.30723572 1772.67152405 C154.50072985 1770.86434139 152.69297538 1769.05840608 150.8840332 1767.25366211 C148.1331319 1764.50811607 145.38760779 1761.75727454 142.64257812 1759.00585938 C140.87792468 1757.2418668 139.11296103 1755.4781845 137.34765625 1753.71484375 C136.53595474 1752.90111801 135.72425323 1752.08739227 134.88795471 1751.24900818 C130.10410711 1746.48455209 125.18587139 1741.95786001 120.0625 1737.5625 C118.45481627 1736.10804483 116.85010285 1734.65029105 115.25 1733.1875 C110.95641368 1729.31216257 106.53161998 1725.6402869 102.03515625 1722.00390625 C98.72497734 1719.28529677 95.48775024 1716.4914311 92.25 1713.6875 C85.97702942 1708.27637954 79.53625286 1703.12259302 72.984375 1698.0546875 C70.91986141 1696.45175215 68.86567524 1694.83617942 66.8125 1693.21875 C57.22271252 1685.6818158 47.48136328 1678.3990579 37.54101562 1671.33105469 C35.71197573 1670.02593599 33.88858786 1668.71288779 32.06835938 1667.39550781 C22.22976738 1660.28804955 12.17058501 1653.52927984 2.0625 1646.8125 C1.20022797 1646.23879669 0.33795593 1645.66509338 -0.55044556 1645.07400513 C-13.57881627 1636.408684 -26.62683854 1627.79043344 -39.9375 1619.5625 C-41.50540283 1618.59256104 -41.50540283 1618.59256104 -43.10498047 1617.60302734 C-57.61185876 1608.65659686 -72.26739518 1600.01754278 -87.08821106 1591.60202026 C-105.49352211 1581.14847078 -123.79486612 1570.52450991 -141.59472656 1559.06347656 C-144.12486983 1557.44245522 -146.66669303 1555.8409793 -149.2109375 1554.2421875 C-162.33168565 1545.98218336 -175.19229537 1537.38969113 -187.9375 1528.5625 C-188.79617676 1527.96937012 -189.65485352 1527.37624023 -190.53955078 1526.76513672 C-213.76496345 1510.70373758 -236.38454349 1493.86032247 -258.22460938 1475.95947266 C-260.50783179 1474.09735769 -262.81530718 1472.2666277 -265.125 1470.4375 C-273.88484976 1463.44434263 -282.37886129 1456.14474192 -290.67578125 1448.609375 C-292.74423875 1446.7374031 -294.83310914 1444.8938661 -296.9375 1443.0625 C-301.65301934 1438.94936237 -306.30210265 1434.7655764 -310.9375 1430.5625 C-312.29959595 1429.33067993 -312.29959595 1429.33067993 -313.68920898 1428.07397461 C-322.39179152 1420.15090514 -330.75088092 1411.90308033 -339.06005859 1403.5703125 C-341.32665993 1401.29830631 -343.59861959 1399.03175556 -345.87109375 1396.765625 C-347.33886271 1395.29719583 -348.80632176 1393.8284568 -350.2734375 1392.359375 C-350.94023529 1391.69460144 -351.60703308 1391.02982788 -352.29403687 1390.34490967 C-356.14686877 1386.47304858 -359.82140192 1382.49596551 -363.38348389 1378.35462952 C-365.78604181 1375.58394076 -368.30399524 1372.9243598 -370.8125 1370.25 C-375.2712948 1365.45735085 -379.49870791 1360.54060172 -383.59765625 1355.43359375 C-385.79577045 1352.73640854 -388.04747331 1350.10002499 -390.32714844 1347.47216797 C-395.94832408 1340.99097019 -401.29809744 1334.35415946 -406.46191406 1327.50195312 C-408.1415535 1325.29429997 -409.84728784 1323.10812547 -411.5546875 1320.921875 C-421.04302133 1308.7130194 -429.76305315 1296.12318676 -438.21728516 1283.18017578 C-439.67056665 1280.96869634 -441.14239986 1278.77367177 -442.63671875 1276.58984375 C-454.4685767 1259.2829361 -465.04844847 1241.04102256 -474.9375 1222.5625 C-475.45103027 1221.60778809 -475.96456055 1220.65307617 -476.49365234 1219.66943359 C-514.79414314 1148.15061104 -540.11598762 1069.6426619 -551.9375 978.5625 C-552.5975 978.5625 -553.2575 978.5625 -553.9375 978.5625 Z " fill="#4CA2FF" transform="translate(1298.9375,5.4375)"/>
</svg>
