<?xml version="1.0" encoding="UTF-8"?>
<svg version="1.1" xmlns="http://www.w3.org/2000/svg" width="400" height="400">
<path d="M0 0 C132 0 264 0 400 0 C400 132 400 264 400 400 C268 400 136 400 0 400 C0 268 0 136 0 0 Z " fill="#000000" transform="translate(0,0)"/>
<path d="M0 0 C18.81 0 37.62 0 57 0 C57.91193209 2.73579628 58.19448161 4.68215379 58.359375 7.5234375 C60.86958453 45.5380241 69.3996587 83.1348257 81.69799805 119.12353516 C81.91527557 119.76174698 82.1325531 120.3999588 82.35641479 121.05751038 C82.95510195 122.81287383 83.55811334 124.56676071 84.16137695 126.32055664 C85 129 85 129 85 131 C87.31 130.67 89.62 130.34 92 130 C92.06912598 128.34182251 92.06912598 128.34182251 92.13964844 126.65014648 C92.67619654 114.78205551 93.70562191 103.00607219 94.92739868 91.19082642 C97.1383192 69.75110911 99.04578435 48.29239244 100.8125 26.8125 C100.86807571 26.13742023 100.92365143 25.46234047 100.98091125 24.76680374 C101.66021331 16.51169873 102.33121241 8.25596937 103 0 C119.5 0 136 0 153 0 C153.56267578 6.62255859 153.56267578 6.62255859 154.13671875 13.37890625 C154.65284703 19.44017242 155.1700675 25.50134505 155.6875 31.5625 C155.75448341 32.34756298 155.82146683 33.13262596 155.89048004 33.94147873 C158.01355844 58.81979578 160.20849017 83.68996683 162.52612305 108.55102539 C162.62637283 109.63504639 162.72662262 110.71906738 162.82991028 111.8359375 C163.01493353 113.83604011 163.20179134 115.8359743 163.39091492 117.83569336 C163.47186905 118.71306152 163.55282318 119.59042969 163.63623047 120.49438477 C163.7069577 121.24921646 163.77768494 122.00404816 163.85055542 122.78175354 C164.01305518 125.19378157 164.02476865 127.58322829 164 130 C166.31 130.33 168.62 130.66 171 131 C171.16653076 130.42894531 171.33306152 129.85789063 171.50463867 129.26953125 C172.93703534 124.42067821 174.4463284 119.60731425 176.05078125 114.8125 C182.81430632 94.52043567 188.05670381 74.12283405 191.45703125 53 C192 50 192 50 193 48 C195.68577348 32.09569075 197.21996276 16.02033516 199 0 C217.81 0 236.62 0 256 0 C250.12427402 23.76599614 244.06601928 47.46273881 237.75585938 71.11621094 C234.55278629 83.12626637 231.39005879 95.14466559 228.3125 107.1875 C225.32082516 118.88514523 222.29910033 130.57443706 219.23397827 142.25308228 C218.79139242 143.94004986 218.34950167 145.62719998 217.90835571 147.31454468 C217.29640831 149.65424678 216.68180043 151.99323369 216.06640625 154.33203125 C215.88660217 155.02100494 215.7067981 155.70997864 215.52154541 156.41983032 C214.48351718 160.34961319 213.28892578 164.13322265 212 168 C189.23 168 166.46 168 143 168 C141.67911739 162.05602824 140.62560073 156.5542437 140.0625 150.5625 C139.34085564 143.50206763 138.31956713 136.54159626 137.10791016 129.55004883 C136.0782804 123.58041468 135.23757913 117.6077646 134.47265625 111.59765625 C133.99360181 107.95129972 133.43567585 104.32209103 132.875 100.6875 C132.05836142 95.07948974 131.76527789 89.65941076 132 84 C129.36 84 126.72 84 124 84 C123.96261719 85.00675781 123.92523438 86.01351562 123.88671875 87.05078125 C123.46982962 96.50368541 122.3837947 105.66569261 120.8203125 114.9921875 C119.94125079 120.25201061 119.20922934 125.52743151 118.5 130.8125 C118.37786133 131.71814697 118.25572266 132.62379395 118.12988281 133.55688477 C117.61470245 137.38862322 117.10390753 141.2209427 116.59277344 145.05322266 C116.1886589 148.07739421 115.78188141 151.10119967 115.375 154.125 C115.25189453 155.05546143 115.12878906 155.98592285 115.00195312 156.94458008 C114.88529297 157.81107178 114.76863281 158.67756348 114.6484375 159.5703125 C114.49640869 160.71137451 114.49640869 160.71137451 114.34130859 161.87548828 C114.0098127 163.9389198 113.50687272 165.97250913 113 168 C90.23 168 67.46 168 44 168 C40.65753973 156.85846576 37.4775905 146.24152542 34.921875 134.9921875 C33.09712559 126.98099863 30.85127651 119.07335354 28.66015625 111.15625 C25.4282983 99.4456716 22.39400046 87.69772439 19.46777344 75.90698242 C16.99957305 65.96622987 14.40389416 56.07104291 11.671875 46.19921875 C8.68994091 35.39382291 5.84380872 24.56204218 3.125 13.6875 C2.81457764 12.44653564 2.50415527 11.20557129 2.18432617 9.92700195 C0 1.13476507 0 1.13476507 0 0 Z " fill="#FDFDFD" transform="translate(72,124)"/>
</svg>
